P3
# Created by GIMP version 2.10.38 PNM plug-in
8 8
255
64
192
64
64
192
64
64
192
64
64
0
0
0
128
64
0
128
64
64
192
64
64
192
64
64
192
64
64
192
64
64
192
64
64
0
0
64
192
64
0
128
64
0
128
64
64
192
64
64
192
64
64
192
64
128
192
0
128
192
128
128
192
0
128
192
0
64
192
64
64
192
64
64
192
64
128
192
0
128
192
0
128
192
0
128
192
128
128
192
128
128
192
0
64
192
64
64
192
64
64
128
0
128
192
0
128
192
0
128
192
0
128
192
128
128
192
0
64
192
64
64
192
64
64
128
0
128
192
0
128
192
0
128
192
0
128
192
0
128
192
0
64
192
64
64
192
64
64
192
64
64
128
0
64
128
0
64
128
0
128
192
0
64
192
64
64
192
64
64
192
64
64
192
64
64
192
64
64
192
64
64
192
64
64
192
64
64
192
64
64
192
64
